{"title":"Game.Of.Death.1978.UNCUT.1080p.BluRay.x264-TUSAHD","uid":11994758,"size":8661033502,"categoryP":"video","categoryS":"hd___movies","magnet":"?xt=urn:btih:85d20e7765e311f473db337f7e508891bee87820&amp;dn=Game.Of.Death.1978.UNCUT.1080p.BluRay.x264-TUSAHD&amp;tr=udp%3A%2F%2Ftracker.openbittorrent.com%3A80&amp;tr=udp%3A%2F%2Fopen.demonii.com%3A1337&amp;tr=udp%3A%2F%2Ftracker.coppersurfer.tk%3A6969&amp;tr=udp%3A%2F%2Fexodus.desync.com%3A6969","seeders":0,"leechers":1,"uploader":"vickey1992","files":2,"time":1433600886,"description":"Video\nID                                       : 1\nFormat                                   : AVC\nFormat/Info                              : Advanced Video Codec\nFormat profile                           : &lt;a class=&quot;__cf_email__&quot; href=&quot;/cdn-cgi/l/email-protection&quot; data-cfemail=&quot;2860414f4068641c0619&quot;&gt;[email&amp;#160;protected]&lt;/a&gt;&lt;script data-cfhash='f9e31' type=&quot;text/javascript&quot;&gt;\n/* &lt;![CDATA[ */!function(){try{var t=&quot;currentScript&quot;in document?document.currentScript:function(){for(var t=document.getElementsByTagName(&quot;script&quot;),e=t.length;e--;)if(t[e].getAttribute(&quot;data-cfhash&quot;))return t[e]}();if(t&amp;&amp;t.previousSibling){var e,r,n,i,c=t.previousSibling,a=c.getAttribute(&quot;data-cfemail&quot;);if(a){for(e=&quot;&quot;,r=parseInt(a.substr(0,2),16),n=2;a.length-n;n+=2)i=parseInt(a.substr(n,2),16)^r,e+=String.fromCharCode(i);e=document.createTextNode(e),c.parentNode.replaceChild(e,c)}t.parentNode.removeChild(t);}}catch(u){}}()/* ]]&gt; */&lt;/script&gt;\nFormat settings, CABAC                   : Yes\nFormat settings, ReFrames                : 10 frames\nCodec ID                                 : V_MPEG4/ISO/AVC\nDuration                                 : 1h 40mn\nBit rate                                 : 10 000 Kbps\nWidth                                    : 1 916 pixels\nHeight                                   : 816 pixels\nDisplay aspect ratio                     : 2.35:1\nFrame rate mode                          : Constant\nFrame rate                               : 23.976 fps\nColor space                              : YUV\nChroma subsampling                       : 4:2:0\nBit depth                                : 8 bits\nScan type                                : Progressive\nBits/(Pixel*Frame)                       : 0.267\nStream size                              : 6.85 GiB (85%)\nTitle                                    : Bruce.Lee.Game.Of.Death.1978.Uncut.DTS-HD.DTS.1080p.BluRay.x264.HQ-TUSAHD\nWriting library                          : x264 core 114 r1924 08d04a4\nEncoding settings                        : cabac=1 / ref=10 / deblock=1:0:0 / analyse=0x3:0x133 / me=tesa / subme=10 / psy=1 / psy_rd=1.00:0.00 / mixed_ref=0 / me_range=16 / chroma_me=1 / trellis=2 / 8x8dct=1 / cqm=0 / deadzone=21,11 / fast_pskip=1 / chroma_qp_offset=-2 / threads=9 / sliced_threads=0 / nr=0 / decimate=1 / interlaced=0 / constrained_intra=0 / bframes=10 / b_pyramid=0 / b_adapt=2 / b_bias=0 / direct=1 / weightb=1 / open_gop=0 / weightp=2 / keyint=240 / keyint_min=24 / scenecut=40 / intra_refresh=0 / rc_lookahead=40 / rc=2pass / mbtree=1 / bitrate=10000 / ratetol=1.0 / qcomp=0.60 / qpmin=0 / qpmax=69 / qpstep=4 / cplxblur=20.0 / qblur=0.5 / vbv_maxrate=25000 / vbv_bufsize=25000 / nal_hrd=none / ip_ratio=1.40 / aq=1:1.00\nLanguage                                 : English\nDefault                                  : Yes\nForced                                   : No\n\nAudio\nID                                       : 2\nFormat                                   : DTS\nFormat/Info                              : Digital Theater Systems\nMode                                     : 16\nFormat settings, Endianness              : Big\nCodec ID                                 : A_DTS\nDuration                                 : 1h 40mn\nBit rate mode                            : Constant\nBit rate                                 : 1 509 Kbps\nChannel(s)                               : 6 channels\nChannel positions                        : Front: L C R, Side: L R, LFE\nSampling rate                            : 48.0 KHz\nBit depth                                : 24 bits\nCompression mode                         : Lossy\nStream size                              : 1.06 GiB (13%)\nTitle                                    : English DTS\nLanguage                                 : English\nDefault                                  : Yes\nForced                                   : No\n\nMenu\n00:00:00.000                             : en:00:00:00.000\n00:03:27.832                             : en:00:03:27.832\n00:06:27.595                             : en:00:06:27.595\n00:11:51.669                             : en:00:11:51.669\n00:15:17.124                             : en:00:15:17.124\n00:19:31.837                             : en:00:19:31.837\n00:24:11.241                             : en:00:24:11.241\n00:30:06.012                             : en:00:30:06.012\n00:34:54.467                             : en:00:34:54.467\n00:39:17.605                             : en:00:39:17.605\n00:45:38.068                             : en:00:45:38.068\n00:50:23.562                             : en:00:50:23.562\n00:56:29.386                             : en:00:56:29.386\n01:02:15.523                             : en:01:02:15.523\n01:06:07.922                             : en:01:06:07.922\n01:11:59.898                             : en:01:11:59.898\n01:19:51.119                             : en:01:19:51.119\n01:27:41.965                             : en:01:27:41.965\n01:32:53.943                             : en:01:32:53.943\n01:37:28.843                             : en:01:37:28.843","torrent":{"xt":"urn:btih:85d20e7765e311f473db337f7e508891bee87820","amp;dn":"Game.Of.Death.1978.UNCUT.1080p.BluRay.x264-TUSAHD","amp;tr":["udp%3A%2F%2Ftracker.openbittorrent.com%3A80","udp%3A%2F%2Fopen.demonii.com%3A1337","udp%3A%2F%2Ftracker.coppersurfer.tk%3A6969","udp%3A%2F%2Fexodus.desync.com%3A6969"],"infoHash":"85d20e7765e311f473db337f7e508891bee87820","infoHashBuffer":{"type":"Buffer","data":[133,210,14,119,101,227,17,244,115,219,51,127,126,80,136,145,190,232,120,32]},"announce":[],"urlList":[]}}